<svg width="128" height="128" viewBox="0 0 128 128" fill="none" xmlns="http://www.w3.org/2000/svg">
  <!-- Background -->
  <rect width="128" height="128" rx="16" fill="#0B1220"/>
  
  <!-- Mountain silhouette -->
  <path d="M0 96 L32 72 L48 80 L64 64 L80 72 L96 56 L112 64 L128 48 L128 128 L0 128 Z" fill="#111A2E"/>
  
  <!-- Stars -->
  <circle cx="20" cy="20" r="1.5" fill="#7FE9FF"/>
  <circle cx="40" cy="16" r="1" fill="#C4B5FD"/>
  <circle cx="64" cy="24" r="1.5" fill="#7FE9FF"/>
  <circle cx="88" cy="18" r="1" fill="#B69CFF"/>
  <circle cx="108" cy="28" r="1.5" fill="#4FC3F7"/>
  
  <!-- Moon -->
  <circle cx="96" cy="32" r="8" fill="#E6EDF3" opacity="0.9"/>
  <circle cx="98" cy="30" r="6" fill="#0B1220"/>
  
  <!-- Mist/fog effect -->
  <ellipse cx="64" cy="88" rx="48" ry="8" fill="#1A2442" opacity="0.6"/>
  <ellipse cx="32" cy="92" rx="24" ry="4" fill="#141E36" opacity="0.8"/>
  <ellipse cx="96" cy="84" rx="24" ry="4" fill="#141E36" opacity="0.8"/>
  
  <!-- Castle silhouette -->
  <rect x="72" y="76" width="4" height="16" fill="#0E1628"/>
  <rect x="68" y="80" width="12" height="12" fill="#0E1628"/>
  <polygon points="68,80 74,72 80,80" fill="#0E1628"/>
  <rect x="70" y="84" width="2" height="8" fill="#B69CFF" opacity="0.6"/>
</svg>
